# xmcd
#
# Track frame offsets:
#	150
#	14466
#	36988
#	63146
#	79067
#	90211
#	112210
#
# Disc length: 1739 seconds
#
# Revision: 1
# Processed by: cddbd v1.5.1PL0 Copyright (c) Steve Scherf et al.
# Submitted via: EasyCDDAExtractor 5.0.6
#
DISCID=4e06c907
DTITLE=The Fumes
DYEAR=1900
DGENRE=Blues
TTITLE0=In The Wood
TTITLE1=The Dogs
TTITLE2=Le Grande
TTITLE3=Evil Ways
TTITLE4=#11
TTITLE5=Oh My Babylon
TTITLE6=Mystery Belle
EXTD=
EXTT0=
EXTT1=
EXTT2=
EXTT3=
EXTT4=
EXTT5=
EXTT6=
PLAYORDER=
